{
	"asset":{
		"generator":"Khronos glTF Blender I/O v4.5.47",
		"version":"2.0"
	},
	"scene":0,
	"scenes":[
		{
			"name":"Scene",
			"nodes":[
				0
			]
		}
	],
	"nodes":[
		{
			"mesh":0,
			"name":"Mball.001"
		}
	],
	"materials":[
		{
			"doubleSided":true,
			"name":"Material.001",
			"pbrMetallicRoughness":{
				"baseColorFactor":[
					0.7747963666915894,
					0.773280918598175,
					0.8000000715255737,
					1
				],
				"metallicFactor":0
			}
		}
	],
	"meshes":[
		{
			"name":"Mesh.001",
			"primitives":[
				{
					"attributes":{
						"POSITION":0,
						"NORMAL":1
					},
					"indices":2,
					"material":0
				}
			]
		}
	],
	"accessors":[
		{
			"bufferView":0,
			"componentType":5126,
			"count":1116,
			"max":[
				3.2461347579956055,
				2.155500888824463,
				1.6253390312194824
			],
			"min":[
				-2.9621963500976562,
				-2.365741014480591,
				-1.5507144927978516
			],
			"type":"VEC3"
		},
		{
			"bufferView":1,
			"componentType":5126,
			"count":1116,
			"type":"VEC3"
		},
		{
			"bufferView":2,
			"componentType":5123,
			"count":6684,
			"type":"SCALAR"
		}
	],
	"bufferViews":[
		{
			"buffer":0,
			"byteLength":13392,
			"byteOffset":0,
			"target":34962
		},
		{
			"buffer":0,
			"byteLength":13392,
			"byteOffset":13392,
			"target":34962
		},
		{
			"buffer":0,
			"byteLength":13368,
			"byteOffset":26784,
			"target":34963
		}
	],
	"buffers":[
		{
			"byteLength":40152,
			"uri":"model.bin"
		}
	]
}
